<svg xmlns="http://www.w3.org/2000/svg" viewBox="0 0 100 100">
    <style>
        .python-blue {
            fill: #4584b6;
        }
        .python-yellow {
            fill: #ffde57;
        }
    </style>
    
    <!-- Python Logo -->
    <path class="python-blue" d="M50,15c-15,0-14.1,6.5-14.1,6.5v6.7h14.2v2H30.9c0,0-9.9-1.1-9.9,14.5c0,15.6,8.6,15.1,8.6,15.1h5.1v-7.3
        c0,0-0.3-8.6,8.5-8.6s13.4,0,13.4,0s7.5,0.1,7.5-7.3c0-7.4,0-12.2,0-12.2S65.8,15,50,15z"/>
    <circle class="python-blue" cx="35" cy="28" r="3"/>
    
    <path class="python-yellow" d="M50,85c15,0,14.1-6.5,14.1-6.5v-6.7H49.9v-2h19.1c0,0,9.9,1.1,9.9-14.5c0-15.6-8.6-15.1-8.6-15.1h-5.1v7.3
        c0,0,0.3,8.6-8.5,8.6s-13.4,0-13.4,0s-7.5-0.1-7.5,7.3c0,7.4,0,12.2,0,12.2S34.2,85,50,85z"/>
    <circle class="python-yellow" cx="65" cy="72" r="3"/>
</svg>